# Blender 3.5.0
# www.blender.org
mtllib Paper Airplane.mtl
o Plane
v 35.179794 -15.426959 -96.074898
v -20.693361 -34.227814 -88.940689
v -76.584648 -14.149098 -82.503914
v -2.379709 2.038227 -91.755867
v 0.944172 4.752124 87.142242
v -40.427299 2.473244 -87.135948
vn 0.8569 0.4710 -0.2096
vn -0.4072 0.9094 0.0848
vn -0.8923 0.4513 0.0097
vn 0.4195 0.9075 -0.0216
vt 0.000000 0.000000
vt 0.500000 0.000000
vt 1.000000 0.000000
vt 0.311778 0.000000
vt 0.500000 1.000000
vt 0.698002 0.000000
s 0
usemtl White
f 5/5/1 2/2/1 6/6/1
f 6/6/2 3/3/2 5/5/2
f 4/4/3 2/2/3 5/5/3
f 1/1/4 4/4/4 5/5/4
